<?xml version="1.0" encoding="UTF-8"?> <svg xmlns="http://www.w3.org/2000/svg" xmlns:xlink="http://www.w3.org/1999/xlink" version="1.1" id="Capa_1" x="0px" y="0px" viewBox="0 0 170.6 69.6" style="enable-background:new 0 0 170.6 69.6;" xml:space="preserve"> <style type="text/css"> .st0{fill:#006F37;} .st1{fill:#ADD6C4;} .st2{fill:#767676;} .st3{fill:#C8C8C8;} </style> <g> <path class="st0" d="M24.2,35.8c-1,0.6-1.7,1.5-2.3,2.4c-0.9,1.3-1.9,2.5-3.1,3.6c-1,0.9-2.2,1.7-3.5,2c-0.6,0.2-1.3,0.2-1.9,0 c-0.8-0.3-1.6-0.4-2.4-0.5c-0.3,0-0.6,0.1-0.9,0.2c-1.4,0.2-2.5-0.3-3.4-1.4c-0.4-0.5-0.7-1-0.9-1.6c-0.1-0.2-0.2-0.3-0.4-0.3 c-1,0-1.9,0-2.8-0.5c-1.3-0.6-2-1.7-2.4-3c-0.5-1.8-0.3-3.6,0.3-5.3c0.1-0.3,0.4-0.6,0.6-0.9c0.5-0.7,0.4-1.1-0.1-1.8 c-1-1.4-0.7-3,0.8-3.8c1.1-0.6,2.3-0.8,3.5-1.1c1.7-0.4,3.3-1,4.8-1.8c0.4-0.3,0.9-0.6,1.2-1c0.3-0.3,0.3-0.8,0.2-1.2 c-0.2-0.5-0.5-0.9-1-1.1c-0.7-0.3-1.5-0.6-2.2-1c-0.7-0.3-1.2-0.7-1.5-1.4c-0.3-0.5-0.2-0.9,0.1-1.3c0.3-0.3,0.6-0.6,1-0.8 c0.3-0.1,0.5-0.3,0.9,0c0.3,0.2,0.5,0,0.5-0.3c0-0.7-0.1-1.3-0.2-1.9c-0.3-1.1-0.4-2.3-0.2-3.4c0.2-1.8,1.1-3.2,2.5-4.2 c1.1-0.8,2.3-1.3,3.7-1.5c0.3,0,0.4-0.1,0.4-0.4c0.1-0.9,1-1.8,1.9-2c0.3-0.1,0.6-0.2,1-0.1c0.6,0.1,1,0.4,1.3,0.9 c0.1,0.1,0.1,0.2,0.2,0.4c0.4,0.6,0.9,0.6,1.4,0c1-1.4,2.9-1.7,4.4-0.9c0.4,0.2,0.8,0.4,1.1,0.7c0.8,0.7,1.1,1.6,1.2,2.6 c0,1-0.2,2-0.5,2.9c0,0.1,0,0.2-0.1,0.2c1.1-0.1,2-1,2.2-2.1c0.1-0.7,0.2-1.3,0.4-2c0.2-0.6,0.5-1.1,0.9-1.6c0.6-0.5,1.5-0.5,2.1,0 C33.1,1.8,33.6,2,34.1,2c0.4,0,0.7-0.2,0.9-0.5c0.4-0.9,1.2-1,2.1-1c0.4,0,0.8,0.1,1.2,0.3c0.3,0.1,0.5,0.3,0.5,0.6 c0.2,1.1,0.6,1.5,1.7,1.6c0.7,0.1,1.3,0.2,1.8,0.7c0.2,0.2,0.3,0.4,0.4,0.6c0.1,0.4,0.2,0.8,0.2,1.2c0,11.1,0,22.2,0,33.4 c0,0.2,0,0.4-0.1,0.7c0,0,0,0.1,0,0.1c-0.4,0.3-1,0.4-1.5,0.6c-0.5,0.2-1,0.3-1.4,0.4c-0.7,0.2-1.4,0.1-2.1,0c-0.4,0-0.8,0-1.1-0.2 c0,0-0.1,0-0.1,0c-0.5-0.3-1.1-0.5-1.6-0.8c-0.7-0.4-1.4-0.9-2-1.3c-0.5-0.3-0.8-0.7-1.2-1.1c-0.3-0.4-0.7-0.7-1.1-1 c-0.4-0.3-0.8-0.7-1.3-0.9c-0.7-0.3-1.5-0.4-2.2-0.5c-0.4,0-0.8,0.2-1.2,0.2c-0.4,0.1-0.7,0.2-1,0.4C24.6,35.7,24.4,35.8,24.2,35.8 z"></path> <path class="st1" d="M42.7,39.6c0-0.2,0-0.3,0-0.5c0-11.4,0-22.9,0-34.3c0-0.2,0-0.3,0-0.5c0.4,0.6,0.4,1.2,0.5,1.9 c0.3-0.3,0.4-0.6,0.7-0.8c0.7-0.6,1.4-0.9,2.3-0.7c0.7,0.1,1.4,0.3,2,0.7c0.3,0.2,0.3,0.1,0.4-0.2c0.1-0.7,0.3-1.3,0.8-1.9 c0.7-0.9,1.7-1.3,2.8-1.4c0.5,0,1,0.2,1.5,0.5c0.4,0.2,0.6,0.2,1,0c0.5-0.3,0.9-0.8,1.4-1.1c1.4-0.7,2.9-1.1,4.4-0.5 c0.9,0.3,1.4,1,1.9,1.7c0.4,0.7,0.6,1.4,0.9,2.1c-0.1,0.2-0.4,0.2-0.6,0.2c-1.8,0-3.5,0-5.3,0c-0.1,0-0.3,0-0.4,0 c-0.4,0-0.5,0.2-0.5,0.5c0,0.1,0,0.2,0,0.4c0,4,0,8.1,0,12.1c0,0.1,0,0.1,0,0.2c0,0.5,0.1,0.7,0.7,0.7c2.8,0,5.6,0,8.5,0 c0.5,0,0.7-0.1,0.7-0.7c0-0.3,0-0.6,0-0.9c0-0.7-0.1-0.8-0.8-0.8c-1.6,0-3.2,0-4.8,0c-0.2,0-0.4,0-0.5,0c-0.2,0-0.4-0.1-0.4-0.4 c0-0.9,0-1.9,0-2.8c0-0.2,0.1-0.3,0.4-0.3c0.2,0,0.4,0,0.5,0c1.4,0,2.9,0,4.3,0c0.7,0,0.8-0.1,0.8-0.8c0-0.3,0-0.7,0-1 c0-0.5-0.2-0.6-0.7-0.7c-1.4,0-2.9,0-4.3,0c-0.2,0-0.4,0-0.6,0c-0.3,0-0.4-0.1-0.4-0.4c0-0.7,0-1.4,0-2.1c0-0.3,0.1-0.4,0.4-0.4 c1.4,0,2.8,0,4.1,0c0.1,0,0.3,0,0.3,0.2c0.7,0.2,1.5,0.2,2.2,0.2c0.9,0,1.7-0.3,2.6-0.3c0.2,0.1,0.1,0.2,0.1,0.4 c-0.1,0.6-0.1,1.1,0,1.7c0.2,1.1,0.8,2,1.8,2.5c0.9,0.5,2,0.7,3,1c0.6,0.1,1.1,0.2,1.7,0.4c0.6,0.2,1.1,0.6,1.2,1.4 c0.1,0.8-0.5,1.5-1.2,1.7c-0.7,0.2-1.4,0.3-2.1,0.2c-1.3-0.1-2.5-0.5-3.7-1.1c-0.4-0.2-0.5-0.1-0.5,0.3c0,0.5,0,1.1,0,1.6 c0,0.4,0.1,0.5,0.5,0.6c1.2,0.4,2.4,0.7,3.6,0.8c0.8,0.1,1.5,0.1,2.3,0c0.2,0,0.3,0,0.4,0.2c-0.2,0.4-0.6,0.6-1,0.8 c-1.2,0.4-2.3,1.1-3.5,1.5c-1,0.4-2,0.6-3.1,0.4c-0.5-0.1-0.7-0.4-0.9-0.8c0-0.1-0.1-0.2-0.1-0.3c-0.3-0.6-0.5-0.6-1-0.2 c-0.5,0.5-1.1,0.7-1.7,0.7c-0.5,0-0.9-0.2-1.2-0.5c-0.6-0.5-1.2-0.8-1.9-0.9c-0.5,0-0.9,0.1-1.1,0.5c-0.7,0.9-1.4,1.7-2,2.6 c0,0-0.1,0.1-0.1,0.1c-0.1,0.1-0.1,0.2,0,0.4c0.1,0.1,0.2,0,0.4,0c0.3-0.2,0.6-0.3,0.9-0.5c0.9-0.8,2-1,3.2-1 c1.8-0.1,3.5,0.1,5.2,0.5c1.2,0.3,2.3,0.8,3.1,1.8c0.5,0.7,0.7,1.5,0.7,2.3c0,1.1-0.2,2.2-0.7,3.2c-0.1,0.3,0,0.3,0.2,0.3 c1,0.1,1.9,0.3,2.7,0.9c0,0.1-0.1,0.1-0.2,0.2c-0.1,0-0.2,0-0.3,0c-0.9,0-0.9,0-0.9,0.9c0,1.5,0,3,0,4.5c0,0.8-0.2,1.6-0.7,2.2 c-0.6,0.8-2.2,1.2-3.1,0.2c-0.4-0.5-0.4-1-0.4-1.6c0-1.2,0-2.4,0-3.6c0-0.6,0-1.2,0-1.8c0-0.6-0.1-0.7-0.7-0.7c-0.6,0-1.2,0-1.8,0 c-0.4,0-0.6,0.1-0.6,0.5c0,2.1,0,4.1,0,6.2c0,0.4,0.1,0.9,0.2,1.3c0.4,1.6,1.5,2.5,3.2,2.6c1.2,0,2.2-0.4,3-1.2 c0.1-0.1,0.2-0.2,0.3-0.3c0.1-0.1,0.2-0.2,0.4-0.2c0.2,0.1,0.2,0.3,0.2,0.4c0,0.1,0,0.2,0,0.4c0,0.4,0.1,0.5,0.5,0.6 c0.1,0,0.2,0,0.3,0.2c-1,1.1-2.3,1.9-3.8,2.4c-1.2,0.5-2.4,0.3-3.7,0.3c-1-0.1-1.9-0.7-2.6-1.4c-0.6-0.6-1.1-1.2-1.5-1.9 c-0.2-0.1-0.2-0.2-0.2-0.3c0-0.2,0-0.4,0-0.6c0-3.8,0-7.7,0-11.5c0-0.1,0-0.3,0-0.4c0-0.5-0.2-0.6-0.6-0.6c-0.7,0-1.3,0-2,0 c-0.5,0-0.7,0.1-0.7,0.7c0,1.3,0,2.6,0,4c0,0.7,0,0.8-0.7,0.8c-1.5,0-2.9,0-4.4,0c-0.6,0-0.6-0.1-0.7-0.6c0-1.3,0-2.6,0-4 c0-0.7-0.1-0.8-0.8-0.8c-0.6,0-1.2,0-1.8,0c-0.6,0-0.7,0.1-0.7,0.7c0,2.1,0,4.2,0,6.2c0,1.7,0,3.5,0,5.2c0,0.2,0,0.4,0,0.6 c-0.1,0.2-0.3,0.1-0.4,0.1c-1.1-0.1-2.2-0.2-3.1-0.8c-0.8-0.6-1.6-0.5-2.4-0.2C43.1,39.6,42.9,39.7,42.7,39.6z"></path> <path class="st0" d="M42.7,53.1c-0.3,0.9-0.5,1.8-0.7,2.7c-0.2,1.2-0.2,2.4-0.1,3.6c0.1,0.9,0.1,1.9,0.2,2.8 c0.1,0.9,0.3,1.8,0.6,2.7c0.1,0.4,0.2,0.8,0.2,1.3c0,0.9,0,1.8,0,2.7c0,0.2,0,0.4-0.2,0.5c-1.5,0-3,0-4.6,0c-3.2,0-6.3,0-9.5-0.1 c-0.2,0-0.3-0.1-0.3-0.3c-0.1-0.8,0.2-1.5,0.6-2.1c0.7-1.1,1.7-1.9,2.9-2.4c0.2-0.1,0.4-0.2,0.6-0.2c1.1-0.2,1.8-0.9,2.3-1.8 c0.6-1.1,0.9-2.2,0.8-3.5c0-1.2,0-2.4,0-3.6c0-1.1-0.3-2.2-0.9-3.2c-1-1.5-2.1-2.9-3.6-3.9c-0.9-0.6-1.9-1.1-2.8-1.6 c-2-1.1-4.1-2.2-6.2-3.2c-0.4-0.2-0.7-0.4-1-0.7c-0.5-0.4-0.9-0.8-1.4-1.1c-0.1-0.1-0.2-0.2,0-0.3c0,0,0,0,0,0 c0.6-0.6,0.6-0.6,1.2-0.1c0.3,0.2,0.5,0.4,0.8,0.6c0.1,0.1,0.3,0.2,0.5,0.1c0.1-0.1,0.1-0.3,0-0.4c-0.1-0.6-0.5-1-0.9-1.4 c-0.2-0.2-0.2-0.3,0-0.5c0.2-0.2,0.3-0.6,0.6-0.7c0.2,0,0.3,0.4,0.5,0.7c0.7,1,1.6,1.7,2.7,2.1c0.5,0.2,0.7,0,0.9-0.4 c0.7-1.8,0.6-3.5-0.1-5.2c-0.1-0.2-0.2-0.5-0.3-0.7c0-0.1,0-0.1,0.1-0.2c0.1-0.1,1.1-0.4,1.3-0.3c0.3,0.1,0.3,0.4,0.3,0.6 c0,0.3,0.1,0.6,0.1,0.9c0,0.1,0,0.4,0.3,0.4c0.2,0,0.2-0.2,0.2-0.4c0-0.4,0.1-0.7,0.1-1.1c0-0.3,0.1-0.4,0.4-0.3c0.1,0,0.1,0,0.2,0 c0.6,0.2,0.7,0.3,0.6,0.9c-0.1,0.4-0.1,0.7-0.1,1.1c0,0.1,0,0.3,0,0.4c-0.1,0.3-0.1,0.6,0,0.9c-0.1,0.3-0.2,0.7-0.3,1 c-0.1,0.7-0.3,1.4-0.5,2.1c-0.2,0.7,0,1.1,0.6,1.4c0.4,0.2,0.9,0.4,1.3,0.6c0.4,0.2,0.6,0,0.6-0.4c-0.1-0.9,0-1.7-0.1-2.6 c0-0.1,0-0.1,0-0.2c0-0.9-0.1-1.7-0.1-2.6c0-0.3,0.1-0.7,0.1-1c0-0.1,0-0.2,0.1-0.2c0.1-0.1,0.2,0,0.3,0c0.4,0.3,0.7,0.7,1.1,1 c0.1,0.1,0.1,0.2,0.1,0.3c0,0.3,0,0.6,0,0.9c0,0.2,0,0.4,0.1,0.7c0,0.1,0.1,0.2,0.2,0.2c0.1,0,0.2-0.1,0.2-0.1 c0.1-0.2,0.2-0.4,0.3-0.6c0.2-0.3,0.3-0.4,0.6-0.2c0.2,0.2,0.6,0.3,0.7,0.5c0.2,0.3-0.1,0.5-0.1,0.8c-0.1,0.8-0.3,1.6-0.4,2.4 c-0.2,0.8-0.3,1.7-0.5,2.5c-0.1,0.4,0.1,0.8,0.5,1c0.7,0.5,1.4,1,2.3,1.3c0.6,0.2,0.8,0.2,1.1-0.3c0.4-0.7,0.8-1.3,1.1-2 c0.1-0.1,0.2-0.2,0.2-0.3c0.4-0.5,0.2-1,0.3-1.5c0-0.6,0-1.3,0-1.9c0-0.2,0.1-0.4,0.4-0.4c0.3,0,0.7,0,1-0.1c0.4-0.1,0.4,0,0.5,0.4 c0,0.2,0.1,0.5,0.1,0.8c0.2-0.5,0.6-0.9,0.7-1.4c0-0.1,0.1-0.1,0.2-0.2c0.4-0.1,0.8-0.3,1.2-0.4c0.1,0,0.3,0,0.4,0.1 c0.1,0.2,0.1,0.4,0,0.6c0,0.2,0,0.3,0,0.5c0,0.1,0,0.3-0.1,0.4c-0.7,1.2-1,2.5-1.3,3.8c-0.1,0.6-0.2,1.3-0.3,1.9 c0,0.2,0,0.4,0.1,0.6c0.2,0.4,0.5,0.4,0.8,0.1c0.1-0.1,0.2-0.2,0.3-0.3c0.1-0.1,0.2-0.1,0.3,0c0.1,0.1,0.1,0.3,0.1,0.5 c0,1.3,0,2.7,0,4C42.9,52.5,42.8,52.8,42.7,53.1z"></path> <path class="st2" d="M49,40.5c0-4.1,0-8.2,0-12.3c0-0.7-0.1-0.6,0.6-0.6c0.9,0,1.7,0,2.6,0c0.3,0,0.4,0.1,0.4,0.4c0,1.5,0,3,0,4.5 c0,0.3,0.1,0.5,0.4,0.5c1.5,0,3.1,0,4.6,0c0.3,0,0.4-0.1,0.4-0.4c0-1.5,0-3,0-4.5c0-0.4,0.1-0.5,0.5-0.5c0.9,0,1.8,0,2.7,0 c0.5,0,0.5,0,0.5,0.5c0,4.2,0,8.4,0,12.6c0,0.2,0,0.4,0,0.5c0,0.6,0,0.6-0.6,0.6c-0.1,0-0.2,0-0.3,0c-0.3,0.1-0.5,0.2-0.8,0.2 c-0.5,0-0.9,0-1.4,0c-0.7,0-0.7,0-0.7-0.7c0-1.4,0-2.9,0-4.3c0-0.9,0-1-1-1c-1.1,0-2.3,0-3.4,0c-0.6,0-0.7,0.1-0.7,0.7 c0,1.5,0,2.9,0,4.4c0,0.2,0,0.4,0,0.5c0,0.2-0.1,0.3-0.3,0.2c-0.3,0-0.6,0-0.8,0c-0.1,0.1-0.3,0.2-0.4,0.2c-0.7,0-1.3,0-2,0 c-0.4,0-0.5-0.1-0.5-0.5C48.9,41.1,48.8,40.7,49,40.5z"></path> <path class="st2" d="M64.7,7.5c-1.5,0-2.9,0-4.4,0c-0.2,0-0.3,0.1-0.3,0.3c0,0.6,0,1.3,0,1.9c0,0.3,0.1,0.4,0.4,0.4 c1.7,0,3.4,0,5.1,0c0.5,0,0.5,0,0.5,0.5c0,0.6,0,1.3,0,1.9c0,0.3-0.1,0.4-0.4,0.4c-1.7,0-3.4,0-5,0c-0.5,0-0.5,0-0.5,0.5 c0,0.8,0,1.5,0,2.3c0,0.4,0.1,0.5,0.5,0.5c1.9,0,3.7,0,5.6,0c0.5,0,0.5,0,0.5,0.5c0,0.7,0,1.3,0,2c0,0.3-0.1,0.4-0.4,0.4 c-3.2,0-6.3,0-9.5,0c-0.3,0-0.4-0.1-0.4-0.4c0-4.5,0-9,0-13.5c0-0.3,0.2-0.4,0.4-0.4c2.2,0,4.3,0,6.5,0c0.9,0,1.8,0,2.7,0 c0.2,0,0.3,0.1,0.3,0.3c0,0.7,0,1.4,0,2.2c0,0.2-0.1,0.3-0.3,0.3C65.6,7.5,65.1,7.5,64.7,7.5z"></path> <path class="st2" d="M76.4,19.1c-0.5,0-1.1,0.1-1.6,0.1c-1.7,0-3.4-0.3-5-0.9c-0.2-0.1-0.3-0.2-0.3-0.4c0-0.8,0-1.6,0-2.4 c0-0.3,0.1-0.3,0.3-0.2c1.1,0.6,2.2,1,3.5,1.2c0.9,0.1,1.8,0.2,2.6-0.1c0.9-0.3,1.3-1,1-1.9c-0.1-0.4-0.4-0.6-0.7-0.8 c-0.6-0.3-1.2-0.4-1.9-0.5c-0.9-0.2-1.9-0.4-2.7-0.8c-1.8-0.8-2.4-2.3-2.2-4.1c0-0.3,0.1-0.5,0.1-0.8c0.2-0.3,0.3-0.7,0.5-1 c0.7-1.1,1.8-1.6,3-1.9c1.8-0.3,3.5-0.1,5.3,0.2C78.6,4.9,79,5,79.3,5c0.2,0,0.3,0.2,0.3,0.4c0,0.8,0,1.5,0,2.3 c0,0.3-0.1,0.3-0.4,0.2C77.9,7.4,76.5,7,75,7.1c-0.4,0-0.9,0.1-1.3,0.2C73.3,7.4,73,7.6,72.8,8c-0.1,0.8,0.1,1.3,0.9,1.6 c0.7,0.2,1.3,0.3,2,0.5c0.2,0,0.4,0.1,0.6,0.3c0.7,0.2,1.4,0.4,2.1,0.7c1.4,0.6,2,1.7,2.1,3.2c0,0.5,0,1-0.1,1.5 c-0.3,1.9-1.6,2.9-3.4,3.3C76.9,19,76.6,19.1,76.4,19.1z"></path> <path class="st2" d="M73.4,41.7c-0.2,0-0.4,0-0.6,0c-0.2,0-0.3-0.1-0.3-0.3c0-0.4,0-0.7,0-1.1c-0.2,0.1-0.3,0.3-0.5,0.4 c-1.1,1.1-2.5,1.5-4,1.2c-1.4-0.3-2.2-1.2-2.5-2.5c-0.1-0.5-0.2-1.1-0.2-1.6c0-2.1,0-4.2,0-6.3c0-0.3,0.1-0.4,0.4-0.4 c0.8,0,1.7,0,2.5,0c0.5,0,0.5,0,0.5,0.5c0,1.8,0,3.7,0,5.5c0,0.3,0,0.6,0.1,0.9c0.1,1.4,1.4,1.8,2.4,1.3c0.8-0.4,1.1-1.1,1.3-2 c0.1-0.3,0.1-0.7,0.1-1c0-1.6,0-3.2,0-4.8c0-0.3,0.1-0.5,0.4-0.4c0.4,0,0.8,0,1.2,0c0.5,0,1,0,1.5,0c0.2,0,0.3,0.1,0.3,0.3 c0,0.8,0,1.7,0,2.5c0.2,0.1,0.2,0.3,0.2,0.4c0,1.1,0,2.3,0,3.4c0,0.3-0.1,0.6-0.2,0.8c0,1,0,1.9,0,2.9c0,0.3-0.1,0.4-0.4,0.4 C74.8,41.7,74.1,41.7,73.4,41.7z"></path> <path class="st2" d="M126.6,55.4c0,0.3,0,0.7,0,1c0,0.3-0.1,0.3-0.3,0.2c-1-0.4-2-0.7-3.1-0.8c-0.6-0.1-1.2-0.1-1.8,0.1 c-0.3,0.1-0.5,0.2-0.7,0.5c-0.2,0.4,0,0.9,0.5,1c0.5,0.2,1.1,0.2,1.6,0.3c0.8,0.1,1.6,0.2,2.4,0.5c1.4,0.5,2,1.3,2.1,2.7 c0.1,1.5-0.5,2.6-1.7,3.2c-0.8,0.4-1.7,0.5-2.7,0.6c-1.6,0.1-3.2-0.2-4.8-0.5c-0.2-0.1-0.3-0.2-0.3-0.4c0-0.6,0-1.3,0-1.9 c0-0.3,0.1-0.3,0.3-0.2c1.3,0.6,2.7,0.9,4.2,0.8c0.4,0,0.8-0.1,1.1-0.2c0.5-0.2,0.7-0.5,0.7-0.9c0-0.4-0.2-0.7-0.8-0.8 c-0.7-0.2-1.5-0.2-2.2-0.4c-0.6-0.1-1.3-0.3-1.8-0.5c-1.1-0.5-1.5-1.4-1.6-2.5c-0.1-1.9,0.8-3,2.6-3.4c1.6-0.4,3.2-0.2,4.8,0 c0.4,0.1,0.8,0.2,1.2,0.2c0.2,0,0.3,0.1,0.3,0.4C126.6,54.8,126.6,55.1,126.6,55.4z"></path> <path class="st2" d="M102.5,36.3c0-0.9,0-1.7,0-2.4c0-0.3-0.1-0.4-0.4-0.4c-0.3,0-0.6,0-0.9,0c-0.2,0-0.3-0.1-0.3-0.3 c0-0.6,0-1.3,0-1.9c0-0.2,0.1-0.3,0.3-0.3c0.4,0,0.7,0,1.1,0c0.2,0,0.3-0.1,0.3-0.3c0-0.8,0-1.6,0-2.3c0-0.3,0.1-0.4,0.4-0.4 c0.9,0,1.8,0,2.7,0c0.3,0,0.4,0.1,0.4,0.4c0,0.7,0,1.5,0,2.2c0,0.3,0.1,0.4,0.4,0.4c0.9,0,1.9,0,2.8,0c0.3,0,0.4,0.1,0.4,0.4 c0,0.6,0,1.2,0,1.8c0,0.2-0.1,0.3-0.3,0.3c-0.9,0-1.9,0-2.8,0c-0.3,0-0.4,0.1-0.4,0.4c0,1.4,0,2.8,0,4.2c0,0.9,0.3,1.2,1.1,1.2 c0.6,0,1.2,0,1.8,0c0.2,0,0.3,0.1,0.3,0.3c0,0.6,0,1.2,0,1.9c0,0.1,0,0.3-0.2,0.3c-1.3,0-2.7,0.1-4-0.1c-1.5-0.3-2.2-1.1-2.4-2.6 C102.5,38.1,102.5,37.1,102.5,36.3z"></path> <path class="st2" d="M76.1,57.1c0-2.3,0-4.7,0-7c0-0.3,0.1-0.4,0.4-0.4c0.9,0,1.8,0,2.6,0c0.3,0,0.4,0.1,0.4,0.4 c0,4.7,0,9.4,0,14.2c0,0.3-0.1,0.4-0.4,0.4c-0.9,0-1.8,0-2.7,0c-0.3,0-0.4-0.1-0.4-0.4C76.1,61.8,76.1,59.4,76.1,57.1z"></path> <path class="st2" d="M95.9,32.7c0.3-0.3,0.4-0.6,0.6-0.8c1-1.1,2.2-1.3,3.6-1.1c0.2,0,0.2,0.2,0.2,0.3c0,0.8,0,1.7,0,2.5 c0,0.2-0.1,0.3-0.3,0.2c-0.4-0.2-0.8-0.3-1.2-0.3c-1.6-0.1-2.7,0.7-2.9,2.3c-0.1,0.3-0.1,0.7-0.1,1c0,1.5,0,3,0,4.5 c0,0.3-0.1,0.4-0.4,0.4c-0.9,0-1.8,0-2.8,0c-0.2,0-0.3-0.1-0.3-0.3c0-3.4,0-6.7,0-10.1c0-0.2,0.1-0.3,0.3-0.3c0.9,0,1.9,0,2.8,0 c0.2,0,0.3,0.1,0.3,0.3C95.9,31.8,95.9,32.2,95.9,32.7z"></path> <path class="st2" d="M146.5,55.6c0.3-0.3,0.4-0.6,0.6-0.8c1-1.1,2.2-1.3,3.6-1.1c0.2,0,0.2,0.2,0.2,0.3c0,0.8,0,1.7,0,2.5 c0,0.3-0.1,0.3-0.3,0.2c-0.4-0.2-0.8-0.3-1.2-0.3c-1.6-0.1-2.7,0.7-2.9,2.3c-0.1,0.3-0.1,0.7-0.1,1c0,1.5,0,3,0,4.5 c0,0.3-0.1,0.4-0.4,0.4c-0.9,0-1.8,0-2.8,0c-0.2,0-0.3-0.1-0.3-0.3c0-3.4,0-6.7,0-10.1c0-0.2,0.1-0.3,0.3-0.3c0.9,0,1.9,0,2.8,0 c0.3,0,0.3,0.1,0.3,0.3C146.5,54.6,146.5,55,146.5,55.6z"></path> <path class="st1" d="M42.7,53.1c0-1.7,0-3.4,0-5.1c0-0.1,0.1-0.3-0.1-0.4c-0.1-0.2,0-0.3,0.1-0.4c0.5-0.6,0.9-1.2,1.4-1.8 c0.2-0.3,0.3-0.6,0.3-1c0.1-1.5,0.2-3,0.3-4.6c0-0.4,0.2-0.6,0.6-0.3c0.3,0.2,0.6,0.4,1,0.5c0.2,0.1,0.3,0.3,0.3,0.5 c0,0.2,0.1,0.5-0.2,0.7c-0.1,1-0.3,2,0,2.9c0.2,0.6,0.5,0.7,1.1,0.5c0.4-0.1,0.8-0.4,1.1-0.6c1.2-0.6,2.4-1.2,3.5-1.8 c0.2-0.1,0.3-0.1,0.5,0c0.5,0.3,0.9,0.6,1.5,0.7c0,0,0,0.1,0,0.1c-0.2,0.1-0.3,0.2-0.5,0.3c-2.5,1.5-5,3.1-7.3,5 c-1.1,0.8-2,1.8-2.8,2.9C43.3,51.9,43,52.5,42.7,53.1z"></path> <path class="st1" d="M52.6,41.7c0.2-0.1,0.1-0.3,0.1-0.4c0-1.7,0-3.4,0-5.1c0-0.5,0-0.5,0.5-0.5c1.5,0,3,0,4.6,0 c0.3,0,0.4,0.1,0.4,0.4c0,1.7,0,3.4,0,5.1c0,0.5,0,0.5,0.5,0.5c0.7,0,1.5,0,2.2,0c-0.4,0.4-0.9,0.6-1.4,0.7 c-1.9,0.6-3.7,0.7-5.6,0.1C53.4,42.4,52.9,42.2,52.6,41.7z"></path> <path class="st2" d="M156.2,59.2c0,1.7,0,3.3,0,5c0,0.3-0.1,0.4-0.4,0.4c-0.9,0-1.8,0-2.7,0c-0.2,0-0.3-0.1-0.3-0.3 c0-3.4,0-6.7,0-10.1c0-0.3,0.1-0.3,0.4-0.3c0.9,0,1.8,0,2.7,0c0.3,0,0.4,0.1,0.4,0.4C156.2,55.8,156.2,57.5,156.2,59.2z"></path> <path class="st2" d="M154.5,52.4c-0.5,0-0.9,0-1.4,0c-0.2,0-0.3-0.1-0.3-0.3c0-0.7,0-1.4,0-2.2c0-0.2,0.1-0.3,0.3-0.3 c1,0,1.9,0,2.9,0c0.2,0,0.3,0.1,0.3,0.3c0,0.7,0,1.4,0,2.2c0,0.2-0.1,0.3-0.3,0.3C155.4,52.4,154.9,52.4,154.5,52.4z"></path> <path class="st1" d="M42.7,69.4c0-1.5,0-3,0-4.6c0.3,0.6,0.6,1.2,1,1.8c0.8,1.1,1.9,2,3.1,2.6c0,0,0.1,0,0.1,0.1 C45.6,69.4,44.2,69.4,42.7,69.4z"></path> <path class="st1" d="M75.9,38.4c0-1.5,0-3.1,0-4.6c0.3-0.1,0.6-0.3,1-0.3c0.5-0.1,1,0.2,1.1,0.7c0.1,0.4,0.1,0.8,0.1,1.1 c-0.1,0.7-0.5,1.2-1.2,1.4c-0.2,0.1-0.3,0.2-0.4,0.4C76.4,37.6,76.2,38,75.9,38.4z"></path> <path class="st3" d="M76.3,10.3c-0.9-0.2-1.9-0.3-2.8-0.7c-0.8-0.3-1-0.9-0.7-1.7c0,0.6,0,0.6,0.6,0.7c0.3,0,0.6,0.1,1,0.1 C75.4,8.8,76,9.4,76.3,10.3z"></path> <path class="st2" d="M52.7,11.8c0,2.2,0,4.4,0,6.6c0,0.5,0,0.5-0.5,0.5c-0.9,0-1.9,0-2.8,0c-0.3,0-0.4-0.1-0.4-0.4 c0-4.5,0-9,0-13.5c0-0.3,0.1-0.4,0.4-0.4c0.9,0,1.9,0,2.8,0c0.3,0,0.4,0.1,0.4,0.4C52.7,7.3,52.7,9.6,52.7,11.8z"></path> <path class="st1" d="M42.7,40c0.1,0,0.1-0.1,0.2-0.1c0.2,0,0.4-0.2,0.4-0.1c0.1,0.2-0.1,0.3-0.1,0.5c-0.2,0.3-0.3,0.7-0.5,1 C42.7,40.8,42.7,40.4,42.7,40z"></path> <path class="st2" d="M102.6,64.2c-0.6-1.2-1.1-2.3-1.7-3.5c-0.6-1.2-1.1-2.3-2.5-2.8c0-0.1,0.1-0.1,0.2-0.1c1.8-0.7,2.5-2,2.4-3.9 c-0.1-1.6-0.8-2.6-2.3-3.2c-0.8-0.3-1.7-0.4-2.6-0.4c-1.9,0-3.9,0-5.8,0c-0.3,0-0.3,0.1-0.3,0.3c0,4.5,0,9,0,13.6 c0,0.3,0.1,0.3,0.4,0.3c0.9,0,1.9,0,2.8,0c0.5,0,0.5,0,0.5-0.5c0-1.5,0-3,0-4.6c0-0.2-0.1-0.4,0.2-0.4c1.7,0,2.4,0,3.4,1.9 c0,0.1,0.1,0.1,0.1,0.2c0.5,1,1,2,1.5,3c0.1,0.2,0.2,0.3,0.5,0.3c1.1,0,2.2,0,3.2,0C102.7,64.5,102.8,64.5,102.6,64.2z M97.2,55.5 c-0.2,0.6-0.6,0.9-1.2,1c-0.8,0.2-1.6,0.1-2.3,0.1c-0.2,0-0.2-0.2-0.2-0.3c0-0.5,0-1,0-1.5c0-0.5,0-1,0-1.5c0-0.2,0-0.3,0.2-0.3 c0.7,0,1.4-0.1,2.2,0.1c0.9,0.2,1.3,0.6,1.4,1.5C97.3,54.9,97.3,55.2,97.2,55.5z"></path> <path class="st2" d="M59.6,50c0-0.3-0.1-0.4-0.4-0.4c-0.9,0-1.8,0-2.7,0c-0.3,0-0.4,0.1-0.4,0.4c0,1.6,0,3.3,0,4.9 c0,0.1,0.1,0.3-0.1,0.4c-0.1-0.1-0.2-0.2-0.3-0.3c-1.7-1.9-4.5-1.9-6.2-0.1c-0.9,1-1.4,2.2-1.5,3.6c-0.1,1.7,0.1,3.3,1.2,4.7 c1.7,2.2,4.8,2.3,6.6,0.2c0.1-0.1,0.1-0.2,0.3-0.2c0,0.4,0,0.7,0,1.1c0,0.3,0.1,0.3,0.3,0.3c0.9,0,1.8,0,2.8,0 c0.3,0,0.3-0.1,0.3-0.3C59.6,59.5,59.6,54.7,59.6,50z M55.9,61c-0.3,0.9-1,1.3-1.9,1.3c-0.9,0-1.6-0.4-1.9-1.3 c-0.4-1.2-0.4-2.4,0-3.6c0.3-0.9,1-1.4,2-1.3c0.9,0,1.6,0.5,1.9,1.4c0.2,0.6,0.3,1.2,0.3,1.8C56.2,59.8,56.1,60.4,55.9,61z"></path> <path class="st2" d="M121.5,35.2c0-2.4-1.1-3.8-3.4-4.2c-2.1-0.4-4.2-0.1-6.2,0.3c-0.2,0-0.2,0.2-0.2,0.3c0,0.7,0,1.3,0,2 c0,0.2,0,0.3,0.3,0.2c0.9-0.5,1.9-0.7,2.9-0.8c0.8-0.1,1.6-0.1,2.3,0.2c0.6,0.2,0.9,0.6,1,1.2c0,0.3,0,0.4-0.4,0.4 c-0.7,0-1.3,0-2,0c-0.9,0-1.8,0.1-2.7,0.4c-2.3,0.7-3.1,3.4-1.7,5.4c1.3,1.7,4.3,1.9,6,0.4c0.2-0.2,0.4-0.5,0.7-0.8 c0,0.5,0,0.9,0,1.3c0,0.2,0.1,0.3,0.3,0.3c0.9,0,1.9,0,2.8,0c0.2,0,0.3-0.1,0.3-0.3C121.5,39.3,121.5,37.3,121.5,35.2z M115.8,39.8 c-1.1,0-1.8-0.8-1.6-1.8c0.1-0.5,0.4-0.8,0.8-0.9c0.4-0.2,0.9-0.2,1.4-0.2c0.5,0,0.9,0,1.4,0c0.2,0,0.3,0,0.3,0.2 C118.2,38.5,117.2,39.8,115.8,39.8z"></path> <path class="st2" d="M139.9,57.9c-0.1-2.4-1.2-3.8-3.5-4.2c-2.1-0.4-4.1-0.1-6.2,0.3c-0.2,0-0.2,0.1-0.2,0.3c0,0.7,0,1.4,0,2 c0,0.2,0.1,0.3,0.3,0.2c0.9-0.5,1.9-0.7,2.9-0.8c0.8-0.1,1.6-0.1,2.3,0.2c0.7,0.2,1,0.7,1,1.3c0,0.2-0.1,0.3-0.3,0.3 c-0.7,0-1.5,0-2.2,0c-0.9,0-1.8,0.1-2.6,0.4c-1.2,0.4-1.9,1.2-2.2,2.4c-0.2,1.4,0,2.6,1.1,3.5c1.2,1.1,4.3,1.3,5.8-0.7 c0.1-0.1,0.2-0.2,0.2-0.3c0,0,0.1,0,0.1,0c0,0.4,0,0.8,0,1.1c0,0.2,0.1,0.3,0.3,0.3c0.9,0,1.9,0,2.8,0c0.2,0,0.3-0.1,0.3-0.3 C139.9,62.1,139.9,60,139.9,57.9z M133.6,62.5c-0.7-0.2-1-0.6-1.1-1.3c0-0.7,0.3-1.2,0.9-1.4c0.6-0.2,1.2-0.2,1.8-0.2 c0.3,0,0.6,0,0.9,0c0.1,0,0.2,0,0.3,0.2C136.6,61.6,135.2,62.9,133.6,62.5z"></path> <path class="st2" d="M73.6,59.8c0-0.5,0-1.1-0.1-1.6c-0.2-2.1-1.7-3.7-3.6-4.3c-1-0.3-2.1-0.3-3.1-0.2c-1.3,0.2-2.5,0.7-3.4,1.8 c-1.1,1.2-1.3,2.7-1.2,4.2c0.1,2.6,1.6,4.4,4.2,4.9c2.3,0.5,4.5,0.1,6.6-0.6c0.2-0.1,0.2-0.2,0.2-0.3c0-0.7,0-1.4,0-2 c0-0.3-0.1-0.4-0.3-0.2c-0.1,0-0.1,0.1-0.2,0.1c-1.3,0.6-2.8,1-4.3,1c-1.5,0-2.4-0.8-2.7-2.1c-0.1-0.3,0-0.4,0.3-0.4 c1.2,0,2.4,0,3.6,0c1.2,0,2.4,0,3.6,0C73.5,60.1,73.6,60,73.6,59.8z M69.8,58c-0.7,0-1.3,0-2,0c-0.6,0-1.3,0-1.9,0 c-0.3,0-0.3-0.1-0.3-0.3c0.3-1.4,1.6-2.2,3-1.7c0.8,0.2,1.3,1,1.4,1.8C70.1,58,70,58,69.8,58z"></path> <path class="st2" d="M90,36.9c0-0.5,0-1.1-0.1-1.6c-0.2-2.1-1.7-3.7-3.6-4.3c-1-0.3-2.1-0.3-3.1-0.2c-1.3,0.2-2.5,0.7-3.4,1.8 c-1.1,1.2-1.3,2.7-1.2,4.2c0.1,2.6,1.6,4.4,4.2,4.9c2.3,0.5,4.5,0.1,6.6-0.6c0.2-0.1,0.2-0.2,0.2-0.3c0-0.7,0-1.4,0-2 c0-0.3-0.1-0.4-0.3-0.2c-0.1,0-0.1,0.1-0.2,0.1c-1.3,0.6-2.8,1-4.3,1c-1.5,0-2.4-0.8-2.7-2.1c-0.1-0.3,0-0.4,0.3-0.4 c1.2,0,2.4,0,3.6,0c1.2,0,2.5,0,3.7,0C89.9,37.3,90,37.2,90,36.9z M86.2,35.2c-0.6,0-1.3,0-1.9,0c-0.6,0-1.2,0-1.9,0 c-0.4,0-0.4,0-0.3-0.4c0.4-1.3,1.6-2.1,2.9-1.7c0.8,0.2,1.4,1,1.4,1.8C86.4,35.2,86.3,35.2,86.2,35.2z"></path> <path class="st2" d="M170.4,58.1c-0.3-2.1-1.5-3.6-3.5-4.2c-1.5-0.5-3-0.5-4.5,0c-1.9,0.6-3,1.8-3.5,3.7c-0.2,0.9-0.2,1.8-0.1,2.6 c0.3,2.1,1.4,3.5,3.4,4.2c0.8,0.3,1.6,0.4,2.6,0.4c0.3,0,0.6,0,1-0.1c2.3-0.2,4.1-1.7,4.6-3.9C170.5,59.9,170.6,59,170.4,58.1z M166.5,61.2c-0.4,0.8-1,1.1-1.9,1.2c-0.9,0-1.6-0.3-1.9-1.1c-0.6-1.3-0.6-2.7,0-4c0.4-0.8,1.1-1.1,1.9-1.1c0.9,0,1.5,0.4,1.9,1.1 c0.3,0.6,0.4,1.3,0.4,2C166.9,59.9,166.8,60.6,166.5,61.2z"></path> <path class="st2" d="M115.7,58.1c-0.3-2.1-1.5-3.6-3.6-4.2c-1.5-0.4-3-0.4-4.4,0c-1.9,0.6-3.1,1.8-3.5,3.7 c-0.2,0.9-0.2,1.8-0.1,2.7c0.3,2.2,1.5,3.6,3.6,4.2c0.7,0.2,1.5,0.3,2.3,0.3c0.3,0,0.7,0,1.1-0.1c2.2-0.2,3.9-1.6,4.5-3.7 C115.8,60.1,115.8,59.1,115.7,58.1z M111.8,61.2c-0.4,0.8-1,1.1-1.9,1.1c-0.9,0-1.6-0.3-1.9-1.1c-0.6-1.3-0.6-2.7,0-4.1 c0.4-0.8,1.1-1.1,1.9-1.1c0.9,0,1.5,0.4,1.9,1.1c0.3,0.6,0.4,1.3,0.4,2C112.2,59.9,112.1,60.6,111.8,61.2z"></path> </g> </svg> 